<?xml version="1.0" encoding="utf-8"?>
<!DOCTYPE svg PUBLIC "-//W3C//DTD SVG 1.1//EN" "http://www.w3.org/Graphics/SVG/1.1/DTD/svg11.dtd">
<svg version="1.1" id="Layer_1" xmlns="http://www.w3.org/2000/svg" xmlns:xlink="http://www.w3.org/1999/xlink" x="0px" y="0px"
	 width="52px" height="100px" viewBox="0 0 52 100" enable-background="new 0 0 52 100" xml:space="preserve">
<path fill="#FFFFFF" d="M50.476,54.674c-1.786,0.793-3.708,1.328-5.725,1.569c2.058-1.233,3.639-3.188,4.383-5.515
	c-1.926,1.142-4.06,1.973-6.331,2.419C40.985,51.21,38.395,50,35.527,50c-5.504,0-9.968,4.463-9.968,9.967
	c0,0.781,0.088,1.543,0.257,2.272c-8.284-0.415-15.628-4.385-20.545-10.415c-0.858,1.472-1.35,3.184-1.35,5.011
	c0,3.459,1.76,6.511,4.435,8.298c-1.634-0.053-3.171-0.5-4.516-1.248c0,0.042,0,0.084,0,0.127c0,4.828,3.435,8.857,7.995,9.774
	c-0.835,0.227-1.718,0.349-2.626,0.349c-0.642,0-1.268-0.062-1.876-0.178c1.27,3.96,4.949,6.843,9.312,6.922
	c-3.411,2.674-7.71,4.267-12.38,4.267c-0.805,0-1.598-0.047-2.379-0.139c4.413,2.828,9.652,4.478,15.281,4.478
	c18.335,0,28.362-15.188,28.362-28.361c0-0.432-0.011-0.861-0.029-1.289C47.45,58.429,49.14,56.674,50.476,54.674z"/>
<path fill="#FFFFFF" d="M15.497,24.318c-1.171-1.616-1.726-3.212-0.926-5.016
	c-1.28-0.163-2.48-0.195-3.614-0.484c-3.302-0.843-5.456-2.932-6.074-6.321C4.257,9.066,5.221,6.06,7.957,3.814
	c2.216-1.819,4.908-2.584,7.718-2.604C19.803,1.183,28.761,1.5,28.761,1.5s-1.636,1.982-3.625,2.661c0,0-2.174-0.055-2.288-0.055
	c2.158,2.108,2.829,4.564,2.45,7.398c-0.277,2.076-1.379,3.616-2.905,4.928c-0.741,0.637-1.558,1.201-2.227,1.904
	c-1.162,1.224-1.094,2.426,0.156,3.553c1.169,1.053,2.439,1.998,3.581,3.079c3.768,3.572,3.629,8.62-0.306,12.029
	c-2.554,2.213-5.642,3.119-8.921,3.33c-2.678,0.172-5.359,0.015-7.917-0.972c-3.506-1.356-5.376-3.875-5.159-7.066
	c0.149-2.189,1.315-3.826,3.025-5.098c2.223-1.654,4.819-2.266,7.504-2.587C13.18,24.478,14.24,24.423,15.497,24.318z M14.97,37.969
	c2.537,0.082,3.551-0.226,5.055-0.893c3.179-1.409,3.851-5.094,1.463-7.613c-1.073-1.133-2.379-2.046-3.602-3.034
	c-0.215-0.172-0.529-0.297-0.806-0.313c-2.438-0.163-4.846,0.002-7.135,0.932c-2.03,0.825-3.461,2.211-3.569,4.524
	c-0.106,2.27,1.007,4.014,2.989,4.932C11.138,37.326,12.927,37.886,14.97,37.969z M20.482,12.603
	c0.015-2.938-1.254-6.025-2.77-7.628c-2.545-2.691-6.923-1.898-7.805,1.5c-0.911,3.508-0.094,6.761,2.255,9.532
	c1.367,1.611,3.374,2.054,5.197,1.369C19.351,16.628,20.407,15.098,20.482,12.603z"/>
<path fill="#FFFFFF" d="M33.08,21.419c-1.722-0.043-3.232-0.082-4.816-0.122
	c0.025-0.995,0.048-1.868,0.074-2.911c1.542,0.039,3.085,0.078,4.747,0.121c0.043-1.675,0.081-3.186,0.122-4.794
	c1.025,0.026,1.928,0.049,2.955,0.075c-0.039,1.536-0.077,3.046-0.12,4.725c1.659,0.042,3.201,0.081,4.816,0.122
	c-0.026,1.041-0.049,1.914-0.075,2.956c-1.542-0.039-3.084-0.078-4.747-0.121c-0.042,1.676-0.081,3.186-0.122,4.794
	c-1.024-0.026-1.927-0.049-2.956-0.075C32.997,24.652,33.036,23.142,33.08,21.419z"/>
</svg>
